<?xml version="1.0" encoding="UTF-8" standalone="no"?>
<!DOCTYPE svg PUBLIC "-//W3C//DTD SVG 1.1//EN" "http://www.w3.org/Graphics/SVG/1.1/DTD/svg11.dtd">
<svg width="100%" height="100%" viewBox="0 0 1080 1080" version="1.1" xmlns="http://www.w3.org/2000/svg" xmlns:xlink="http://www.w3.org/1999/xlink" xml:space="preserve" xmlns:serif="http://www.serif.com/" style="fill-rule:evenodd;clip-rule:evenodd;stroke-linejoin:round;stroke-miterlimit:2;">
    <rect id="Artboard1" x="0" y="0" width="1080" height="1080" style="fill:none;"/>
    <g id="Artboard11" serif:id="Artboard1">
        <g transform="matrix(2.03174,0,0,2.03174,-362.707,26.5821)">
            <g transform="matrix(4.31755,0,0,4.31755,-1254.88,-895.519)">
                <path d="M369.25,275.005C368.434,275.005 367.654,274.897 366.91,274.681C366.166,274.465 365.494,274.169 364.894,273.793C364.294,273.417 363.802,272.993 363.418,272.521C363.217,272.273 363.055,272.016 362.933,271.748C362.852,271.568 362.854,271.362 362.938,271.183C363.022,271.004 363.179,270.871 363.369,270.817C364.108,270.598 365.292,270.263 365.977,270.069C366.275,269.985 366.592,270.109 366.754,270.374C366.92,270.654 367.151,270.904 367.438,271.129C367.878,271.473 368.434,271.653 369.106,271.669C369.762,271.685 370.31,271.533 370.75,271.213C371.19,270.893 371.41,270.477 371.41,269.965C371.41,269.565 371.254,269.213 370.942,268.909C370.63,268.605 370.186,268.373 369.61,268.213L367.234,267.613C366.402,267.405 365.678,267.077 365.062,266.629C364.446,266.181 363.966,265.633 363.622,264.985C363.278,264.337 363.106,263.597 363.106,262.765C363.106,261.149 363.642,259.889 364.714,258.985C365.786,258.081 367.298,257.629 369.25,257.629C370.322,257.629 371.258,257.777 372.058,258.073C372.858,258.369 373.542,258.805 374.11,259.381C374.545,259.822 374.912,260.347 375.211,260.957C375.281,261.1 375.284,261.266 375.22,261.412C375.156,261.557 375.031,261.667 374.879,261.713C374.122,261.941 372.82,262.328 372.131,262.533C371.881,262.607 371.614,262.494 371.494,262.262C371.35,261.985 371.132,261.73 370.846,261.493C370.422,261.141 369.874,260.965 369.202,260.965C368.53,260.965 368.006,261.117 367.63,261.421C367.254,261.725 367.066,262.165 367.066,262.741C367.066,263.141 367.218,263.473 367.522,263.737C367.826,264.001 368.242,264.197 368.77,264.325L371.146,264.925C372.506,265.261 373.566,265.889 374.326,266.809C375.086,267.729 375.466,268.773 375.466,269.941C375.466,270.997 375.222,271.901 374.734,272.653C374.246,273.405 373.538,273.985 372.61,274.393C371.682,274.801 370.562,275.005 369.25,275.005Z" style="fill:rgb(0,77,40);fill-rule:nonzero;"/>
            </g>
            <g transform="matrix(4.31755,0,0,4.31755,-1254.88,-895.519)">
                <path d="M377.407,274.717C377.236,274.717 377.072,274.649 376.951,274.528C376.83,274.407 376.762,274.243 376.762,274.072L376.762,258.561C376.762,258.39 376.83,258.226 376.951,258.106C377.072,257.985 377.236,257.917 377.407,257.917L379.982,257.917C380.153,257.917 380.317,257.985 380.437,258.106C380.558,258.226 380.626,258.39 380.626,258.561L380.626,274.072C380.626,274.243 380.558,274.407 380.437,274.528C380.317,274.649 380.153,274.717 379.982,274.717L377.407,274.717Z" style="fill:rgb(0,77,40);fill-rule:nonzero;"/>
            </g>
            <g transform="matrix(4.31755,0,0,4.31755,-1273.85,-895.519)">
                <path d="M392.866,275.005C392.05,275.005 391.27,274.897 390.526,274.681C389.782,274.465 389.11,274.169 388.51,273.793C387.91,273.417 387.418,272.993 387.034,272.521C386.84,272.282 386.682,272.033 386.562,271.776C386.476,271.59 386.477,271.376 386.562,271.191C386.648,271.006 386.81,270.867 387.007,270.811C387.743,270.593 388.899,270.265 389.579,270.073C389.884,269.986 390.21,270.113 390.376,270.383C390.542,270.66 390.771,270.907 391.054,271.129C391.494,271.473 392.05,271.653 392.722,271.669C393.378,271.685 393.926,271.533 394.366,271.213C394.806,270.893 395.026,270.477 395.026,269.965C395.026,269.565 394.87,269.213 394.558,268.909C394.246,268.605 393.802,268.373 393.226,268.213L390.85,267.613C390.018,267.405 389.294,267.077 388.678,266.629C388.062,266.181 387.582,265.633 387.238,264.985C386.894,264.337 386.722,263.597 386.722,262.765C386.722,261.149 387.258,259.889 388.33,258.985C389.402,258.081 390.914,257.629 392.866,257.629C393.938,257.629 394.874,257.777 395.674,258.073C396.474,258.369 397.158,258.805 397.726,259.381C398.133,259.793 398.48,260.28 398.768,260.84C398.855,261.009 398.862,261.208 398.787,261.383C398.712,261.558 398.563,261.691 398.381,261.745C397.641,261.969 396.49,262.312 395.822,262.511C395.532,262.597 395.222,262.471 395.075,262.207C394.936,261.95 394.728,261.713 394.462,261.493C394.038,261.141 393.49,260.965 392.818,260.965C392.146,260.965 391.622,261.117 391.246,261.421C390.87,261.725 390.682,262.165 390.682,262.741C390.682,263.141 390.834,263.473 391.138,263.737C391.442,264.001 391.858,264.197 392.386,264.325L394.762,264.925C396.122,265.261 397.182,265.889 397.942,266.809C398.702,267.729 399.082,268.773 399.082,269.941C399.082,270.997 398.838,271.901 398.35,272.653C397.862,273.405 397.154,273.985 396.226,274.393C395.298,274.801 394.178,275.005 392.866,275.005Z" style="fill:rgb(0,77,40);fill-rule:nonzero;"/>
            </g>
            <g transform="matrix(4.31755,0,0,4.31755,-1273.85,-895.519)">
                <path d="M400.378,274.717L400.378,257.917L404.242,257.917L404.242,274.717L400.378,274.717ZM403.186,274.717L403.186,271.165L410.898,271.165C411.199,271.165 411.442,271.408 411.442,271.709L411.442,274.173C411.442,274.473 411.199,274.717 410.898,274.717L403.186,274.717ZM403.186,267.973L403.186,264.541L409.626,264.541C409.927,264.541 410.17,264.784 410.17,265.085C410.17,265.727 410.17,266.787 410.17,267.429C410.17,267.729 409.927,267.973 409.626,267.973C407.984,267.973 403.186,267.973 403.186,267.973ZM403.186,261.469L403.186,257.917L410.778,257.917C411.079,257.917 411.322,258.16 411.322,258.461L411.322,260.925C411.322,261.225 411.079,261.469 410.778,261.469L403.186,261.469Z" style="fill:rgb(0,77,40);fill-rule:nonzero;"/>
            </g>
            <g transform="matrix(4.31755,0,0,4.31755,-1273.85,-895.519)">
                <path d="M424.735,274.717C424.571,274.717 424.413,274.651 424.296,274.535C424.18,274.418 424.114,274.26 424.114,274.096C424.114,271.456 424.114,261.178 424.114,258.538C424.114,258.373 424.18,258.215 424.296,258.099C424.413,257.982 424.571,257.917 424.735,257.917C425.456,257.917 426.637,257.917 427.357,257.917C427.522,257.917 427.68,257.982 427.796,258.099C427.913,258.215 427.978,258.373 427.978,258.538C427.978,261.178 427.978,271.456 427.978,274.096C427.978,274.26 427.913,274.418 427.796,274.535C427.68,274.651 427.522,274.717 427.357,274.717C426.637,274.717 425.456,274.717 424.735,274.717ZM413.883,274.721C413.542,274.719 413.266,274.441 413.266,274.1C413.266,271.464 413.266,261.168 413.266,258.518C413.266,258.352 413.332,258.194 413.449,258.077C413.567,257.961 413.726,257.896 413.891,257.897C414.613,257.901 415.794,257.908 416.513,257.913C416.855,257.915 417.13,258.192 417.13,258.534C417.13,261.169 417.13,271.466 417.13,274.116C417.13,274.281 417.064,274.44 416.947,274.556C416.83,274.673 416.671,274.738 416.505,274.737C415.783,274.732 414.602,274.725 413.883,274.721ZM416.002,267.925L416.002,264.373L426.178,264.373L426.178,267.925L416.002,267.925Z" style="fill:rgb(0,77,40);fill-rule:nonzero;"/>
            </g>
            <g transform="matrix(4.31755,0,0,4.31755,-1273.85,-895.519)">
                <path d="M442.109,274.717C441.867,274.717 441.65,274.567 441.565,274.34C440.635,271.854 435.418,257.917 435.418,257.917L439.159,257.917C439.219,257.917 439.272,257.953 439.294,258.009C439.742,259.161 444.251,270.766 445.479,273.926C445.548,274.105 445.525,274.306 445.417,274.464C445.309,274.622 445.129,274.717 444.938,274.717L442.109,274.717ZM429.451,274.717C429.259,274.717 429.08,274.622 428.972,274.464C428.863,274.306 428.84,274.105 428.91,273.926C430.121,270.809 434.526,259.473 435.074,258.061C435.108,257.974 435.192,257.917 435.285,257.917C436.003,257.917 438.97,257.917 438.97,257.917C438.97,257.917 433.754,271.854 432.823,274.34C432.738,274.567 432.522,274.717 432.28,274.717L429.451,274.717ZM431.674,271.525L431.674,268.117L442.738,268.117L442.738,271.525L431.674,271.525Z" style="fill:rgb(0,77,40);fill-rule:nonzero;"/>
            </g>
            <g transform="matrix(4.31755,0,0,4.31755,-1273.85,-895.519)">
                <path d="M449.145,274.717C448.979,274.717 448.821,274.651 448.705,274.535C448.588,274.418 448.522,274.26 448.522,274.095C448.522,271.213 448.522,259.309 448.522,259.309L452.362,259.309L452.362,274.095C452.362,274.26 452.297,274.418 452.18,274.535C452.063,274.651 451.905,274.717 451.74,274.717C451.025,274.717 449.859,274.717 449.145,274.717ZM444.249,261.469C444.083,261.469 443.925,261.403 443.809,261.287C443.692,261.17 443.626,261.012 443.626,260.847L443.626,258.539C443.626,258.374 443.692,258.216 443.809,258.099C443.925,257.982 444.083,257.917 444.249,257.917L456.636,257.917C456.801,257.917 456.959,257.982 457.076,258.099C457.193,258.216 457.258,258.374 457.258,258.539L457.258,260.847C457.258,261.012 457.193,261.17 457.076,261.287C456.959,261.403 456.801,261.469 456.636,261.469L444.249,261.469Z" style="fill:rgb(0,77,40);fill-rule:nonzero;"/>
            </g>
            <g transform="matrix(0.384218,0,0,0.384218,111.698,44.0944)">
                <path d="M341.345,414.111C342.729,410.573 346.139,408.245 349.938,408.245C353.737,408.245 357.148,410.573 358.532,414.111C367.502,437.04 380.275,469.691 380.275,469.691C380.275,469.691 405.186,463.891 421.755,460.033C424.861,459.31 428.119,460.241 430.373,462.496C432.628,464.75 433.559,468.008 432.836,471.114C428.978,487.683 423.178,512.594 423.178,512.594C423.178,512.594 455.829,525.367 478.758,534.337C482.296,535.721 484.624,539.132 484.624,542.931C484.624,546.73 482.296,550.14 478.758,551.524C455.829,560.494 423.178,573.267 423.178,573.267C423.178,573.267 428.978,598.178 432.836,614.748C433.559,617.853 432.628,621.111 430.373,623.365C428.119,625.62 424.861,626.551 421.755,625.828C405.186,621.97 380.275,616.17 380.275,616.17C380.275,616.17 367.502,648.822 358.532,671.751C357.148,675.289 353.737,677.617 349.938,677.617C346.139,677.617 342.729,675.289 341.345,671.751C332.375,648.822 319.602,616.17 319.602,616.17C319.602,616.17 294.691,621.97 278.121,625.828C275.016,626.551 271.758,625.62 269.503,623.365C267.249,621.111 266.318,617.853 267.041,614.748C270.899,598.178 276.699,573.267 276.699,573.267C276.699,573.267 244.047,560.494 221.118,551.524C217.58,550.14 215.252,546.73 215.252,542.931C215.252,539.132 217.58,535.721 221.118,534.337C244.047,525.367 276.699,512.594 276.699,512.594C276.699,512.594 270.899,487.683 267.041,471.114C266.318,468.008 267.249,464.75 269.503,462.496C271.758,460.241 275.016,459.31 278.121,460.033C294.691,463.891 319.602,469.691 319.602,469.691C319.602,469.691 332.375,437.04 341.345,414.111ZM319.566,469.701L319.566,512.558L276.708,512.558L276.708,573.303L319.566,573.303L319.566,616.161L380.311,616.161L380.311,573.303L423.168,573.303L423.168,512.558L380.311,512.558L380.311,469.701L319.566,469.701Z" style="fill:rgb(0,77,40);"/>
            </g>
        </g>
    </g>
</svg>
