<svg xmlns="http://www.w3.org/2000/svg" xmlns:xlink="http://www.w3.org/1999/xlink" width="150" zoomAndPan="magnify" viewBox="0 0 112.5 112.499997" height="150" preserveAspectRatio="xMidYMid meet" version="1.0"><path fill="#ffb86a" d="M 53.339844 6.726562 C 53.765625 5.640625 54.808594 4.929688 55.972656 4.929688 C 57.136719 4.929688 58.179688 5.640625 58.601562 6.726562 C 61.929688 15.230469 67.234375 28.785156 67.234375 28.785156 C 67.234375 28.785156 77.476562 26.402344 83.570312 24.980469 C 84.519531 24.761719 85.519531 25.046875 86.207031 25.734375 C 86.898438 26.425781 87.183594 27.421875 86.960938 28.375 C 85.542969 34.46875 83.160156 44.710938 83.160156 44.710938 C 83.160156 44.710938 96.710938 50.015625 105.21875 53.339844 C 106.300781 53.765625 107.015625 54.808594 107.015625 55.972656 C 107.015625 57.136719 106.300781 58.179688 105.21875 58.601562 C 96.710938 61.929688 83.160156 67.234375 83.160156 67.234375 C 83.160156 67.234375 85.542969 77.476562 86.960938 83.570312 C 87.183594 84.519531 86.898438 85.519531 86.207031 86.207031 C 85.519531 86.898438 84.519531 87.183594 83.570312 86.960938 C 77.476562 85.542969 67.234375 83.160156 67.234375 83.160156 C 67.234375 83.160156 61.929688 96.710938 58.601562 105.21875 C 58.179688 106.300781 57.136719 107.015625 55.972656 107.015625 C 54.808594 107.015625 53.765625 106.300781 53.339844 105.21875 C 50.015625 96.710938 44.710938 83.160156 44.710938 83.160156 C 44.710938 83.160156 34.46875 85.542969 28.375 86.960938 C 27.421875 87.183594 26.425781 86.898438 25.734375 86.207031 C 25.046875 85.519531 24.761719 84.519531 24.980469 83.570312 C 26.402344 77.476562 28.785156 67.234375 28.785156 67.234375 C 28.785156 67.234375 15.230469 61.929688 6.726562 58.601562 C 5.640625 58.179688 4.929688 57.136719 4.929688 55.972656 C 4.929688 54.808594 5.640625 53.765625 6.726562 53.339844 C 15.230469 50.015625 28.785156 44.710938 28.785156 44.710938 C 28.785156 44.710938 26.402344 34.46875 24.980469 28.375 C 24.761719 27.421875 25.046875 26.425781 25.734375 25.734375 C 26.425781 25.046875 27.421875 24.761719 28.375 24.980469 C 34.46875 26.402344 44.710938 28.785156 44.710938 28.785156 C 44.710938 28.785156 50.015625 15.230469 53.339844 6.726562 Z M 44.699219 28.789062 L 44.699219 44.699219 L 28.789062 44.699219 L 28.789062 67.246094 L 44.699219 67.246094 L 44.699219 83.15625 L 67.246094 83.15625 L 67.246094 67.246094 L 83.15625 67.246094 L 83.15625 44.699219 L 67.246094 44.699219 L 67.246094 28.789062 Z M 44.699219 28.789062 " fill-opacity="1" fill-rule="evenodd"/></svg>