<?xml version="1.0" encoding="UTF-8" standalone="no"?><!DOCTYPE svg PUBLIC "-//W3C//DTD SVG 1.1//EN" "http://www.w3.org/Graphics/SVG/1.1/DTD/svg11.dtd"><svg width="100%" height="100%" viewBox="0 0 595 595" version="1.1" xmlns="http://www.w3.org/2000/svg" xmlns:xlink="http://www.w3.org/1999/xlink" xml:space="preserve" xmlns:serif="http://www.serif.com/" style="fill-rule:evenodd;clip-rule:evenodd;stroke-linejoin:round;stroke-miterlimit:2;"><path d="M283.371,35.727c2.251,-5.754 7.798,-9.54 13.977,-9.54c6.178,-0 11.725,3.786 13.976,9.54c17.679,45.191 45.847,117.195 45.847,117.195c-0,0 54.406,-12.667 86.789,-20.207c5.05,-1.175 10.349,0.339 14.015,4.005c3.667,3.666 5.181,8.965 4.005,14.015c-7.54,32.384 -20.207,86.79 -20.207,86.79c0,-0 72.004,28.168 117.195,45.846c5.754,2.251 9.541,7.798 9.541,13.977c-0,6.178 -3.787,11.725 -9.541,13.976c-45.191,17.679 -117.195,45.847 -117.195,45.847c0,-0 12.667,54.406 20.207,86.789c1.176,5.05 -0.338,10.349 -4.005,14.015c-3.666,3.667 -8.965,5.181 -14.015,4.005c-32.383,-7.54 -86.789,-20.207 -86.789,-20.207c-0,0 -28.168,72.004 -45.847,117.195c-2.251,5.754 -7.798,9.541 -13.976,9.541c-6.179,-0 -11.726,-3.787 -13.977,-9.541c-17.678,-45.191 -45.846,-117.195 -45.846,-117.195c-0,0 -54.406,12.667 -86.79,20.207c-5.05,1.176 -10.349,-0.338 -14.015,-4.005c-3.666,-3.666 -5.18,-8.965 -4.005,-14.015c7.54,-32.383 20.207,-86.789 20.207,-86.789c0,-0 -72.004,-28.168 -117.195,-45.847c-5.754,-2.251 -9.54,-7.798 -9.54,-13.976c-0,-6.179 3.786,-11.726 9.54,-13.977c45.191,-17.678 117.195,-45.846 117.195,-45.846c0,-0 -12.667,-54.406 -20.207,-86.79c-1.175,-5.05 0.339,-10.349 4.005,-14.015c3.666,-3.666 8.965,-5.18 14.015,-4.005c32.384,7.54 86.79,20.207 86.79,20.207c-0,0 28.168,-72.004 45.846,-117.195Zm-45.917,117.214l-0,84.513l-84.513,-0l-0,119.787l84.513,0l-0,84.513l119.787,0l0,-84.513l84.513,0l0,-119.787l-84.513,-0l0,-84.513l-119.787,-0Z" style="fill:#004d28;"/></svg>