<?xml version="1.0" encoding="UTF-8" standalone="no"?><!DOCTYPE svg PUBLIC "-//W3C//DTD SVG 1.1//EN" "http://www.w3.org/Graphics/SVG/1.1/DTD/svg11.dtd"><svg width="100%" height="100%" viewBox="0 0 68 68" version="1.1" xmlns="http://www.w3.org/2000/svg" xmlns:xlink="http://www.w3.org/1999/xlink" xml:space="preserve" xmlns:serif="http://www.serif.com/" style="fill-rule:evenodd;clip-rule:evenodd;stroke-linejoin:round;stroke-miterlimit:2;"><path d="M33.768,0l6.794,17.366l12.523,-2.915l-2.916,12.523l17.367,6.794l-17.367,6.794l2.916,12.523l-12.523,-2.916l-6.794,17.367l-6.794,-17.367l-12.523,2.916l2.915,-12.523l-17.366,-6.794l17.366,-6.794l-2.915,-12.523l12.523,2.915l6.794,-17.366Zm-6.802,17.368l0,9.598l-9.598,0l0,13.604l9.598,-0l0,9.597l13.604,0l-0,-9.597l9.597,-0l0,-13.604l-9.597,0l-0,-9.598l-13.604,0Z" style="fill:#fff;"/></svg>