<?xml version="1.0" encoding="UTF-8" standalone="no"?><!DOCTYPE svg PUBLIC "-//W3C//DTD SVG 1.1//EN" "http://www.w3.org/Graphics/SVG/1.1/DTD/svg11.dtd"><svg width="100%" height="100%" viewBox="0 0 68 68" version="1.1" xmlns="http://www.w3.org/2000/svg" xmlns:xlink="http://www.w3.org/1999/xlink" xml:space="preserve" xmlns:serif="http://www.serif.com/" style="fill-rule:evenodd;clip-rule:evenodd;stroke-linejoin:round;stroke-miterlimit:2;"><path d="M33.768,0c2.264,0 3.574,14.958 6.794,17.366c3.219,2.409 10.922,-4.517 12.523,-2.915c1.601,1.601 -5.324,9.304 -2.916,12.523c2.409,3.22 17.367,4.529 17.367,6.794c-0,2.264 -14.958,3.574 -17.367,6.794c-2.408,3.219 4.517,10.922 2.916,12.523c-1.601,1.601 -9.304,-5.324 -12.523,-2.916c-3.22,2.409 -4.53,17.367 -6.794,17.367c-2.265,-0 -3.574,-14.958 -6.794,-17.367c-3.219,-2.408 -10.922,4.517 -12.523,2.916c-1.602,-1.601 5.324,-9.304 2.915,-12.523c-2.408,-3.22 -17.366,-4.53 -17.366,-6.794c-0,-2.265 14.958,-3.574 17.366,-6.794c2.409,-3.219 -4.517,-10.922 -2.915,-12.523c1.601,-1.602 9.304,5.324 12.523,2.915c3.22,-2.408 4.529,-17.366 6.794,-17.366Zm-6.802,17.368c-2.267,1.6 1.6,7.998 0,9.598c-1.6,1.6 -7.998,-2.267 -9.598,0c-1.599,2.267 -1.599,11.336 0,13.604c1.6,2.267 7.998,-1.6 9.598,-0c1.6,1.599 -2.267,7.998 0,9.597c2.267,1.6 11.336,1.6 13.604,0c2.267,-1.599 -1.6,-7.998 -0,-9.597c1.599,-1.6 7.998,2.267 9.597,-0c1.6,-2.268 1.6,-11.337 0,-13.604c-1.599,-2.267 -7.998,1.6 -9.597,0c-1.6,-1.6 2.267,-7.998 -0,-9.598c-2.268,-1.599 -11.337,-1.599 -13.604,0Z" style="fill:#fff;"/></svg>